<?xml version="1.0" encoding="UTF-8"?>
<svg id="Layer_2" data-name="Layer 2" xmlns="http://www.w3.org/2000/svg" width="32" height="32" viewBox="0 0 534.95 829.12">
  <defs>
    <style>
      .cls-1 {
        fill: #5f34e3;
      }
    </style>
  </defs>
  <g id="Layer_1-2" data-name="Layer 1">
    <g>
      <g>
        <path class="cls-1" d="M290.9,402.04l20.12-98.92,2.82-11.66,115.44-29.28c-.01,.29-.07,.6-.14,.91l-41.85,205.71c-2.45,12.03-14.2,18.28-22.64,12l-63.44-47.2c-8.76-6.52-12.85-19.04-10.31-31.55Z"/>
        <path class="cls-1" d="M458.52,115.31l-20.12,98.92-2.82,11.66-115.44,29.28c.01-.29,.07-.6,.14-.91l41.85-205.71c2.45-12.03,14.2-18.28,22.64-12l63.44,47.2c8.76,6.52,12.85,19.04,10.31,31.55Z"/>
        <g>
          <path class="cls-1" d="M113.92,304.28l73.03-69.69,8.37-8.59-36.66-113.31c-.24,.16-.47,.38-.7,.6L6.1,258.21c-8.88,8.48-7.91,21.75,1.9,25.55l73.73,28.58c10.18,3.95,22.96,.74,32.2-8.07Z"/>
          <path class="cls-1" d="M267.43,9.74l-73.03,69.69-8.37,8.59,36.66,113.31c.24-.16,.47-.38,.7-.6L375.25,55.81c8.88-8.48,7.91-21.75-1.9-25.55L299.62,1.67c-10.18-3.95-22.96-.74-32.2,8.07Z"/>
        </g>
      </g>
      <path class="cls-1" d="M76.42,713.81l20.12-98.92,2.82-11.66,115.44-29.28c-.01,.29-.07,.6-.14,.91l-41.85,205.71c-2.45,12.03-14.2,18.28-22.64,12l-63.44-47.2c-8.76-6.52-12.85-19.04-10.31-31.55Z"/>
      <g>
        <path class="cls-1" d="M244.05,427.08l-20.12,98.92-2.82,11.66-115.44,29.28c.01-.29,.07-.6,.14-.91l41.85-205.71c2.45-12.03,14.2-18.28,22.64-12l63.44,47.2c8.76,6.52,12.85,19.04,10.31,31.55Z"/>
        <g>
          <path class="cls-1" d="M421.02,524.84l-73.03,69.69-8.37,8.59,36.66,113.31c.24-.16,.47-.38,.7-.6l151.87-144.93c8.88-8.48,7.91-21.75-1.9-25.55l-73.73-28.58c-10.18-3.95-22.96-.74-32.2,8.07Z"/>
          <path class="cls-1" d="M267.52,819.38l73.03-69.69,8.37-8.59-36.66-113.31c-.24,.16-.47,.38-.7,.6l-151.87,144.93c-8.88,8.48-7.91,21.75,1.9,25.55l73.73,28.58c10.18,3.95,22.96,.74,32.2-8.07Z"/>
        </g>
      </g>
    </g>
  </g>
</svg>